<svg width="48" height="54" viewBox="0 0 48 54" fill="none" xmlns="http://www.w3.org/2000/svg">
<path d="M69.0029 39.0001C66.2415 39.0001 64.0029 36.7616 64.0029 34.0001V14.9651C64.0029 13.5485 65.1513 12.4001 66.5679 12.4001C67.9845 12.4001 69.1329 13.5485 69.1329 14.9651V30.0101C69.1329 32.7716 71.3715 35.0101 74.1329 35.0101H78.8039C79.9057 35.0101 80.7989 35.9033 80.7989 37.0051C80.7989 38.1069 79.9057 39.0001 78.8039 39.0001H69.0029Z" fill="#170F49"/>
<path d="M91.0509 39.4561C89.3789 39.4561 87.8969 39.1775 86.6049 38.6201C85.3382 38.0628 84.3122 37.3028 83.5269 36.3401C83.3887 36.1605 83.261 35.9766 83.1437 35.7886C82.3015 34.438 83.58 32.9961 85.1717 32.9961H85.888C86.7288 32.9961 87.4305 33.6156 87.9349 34.2881C88.2389 34.6935 88.6442 35.0228 89.1509 35.2761C89.6829 35.5041 90.2909 35.6181 90.9749 35.6181C91.6842 35.6181 92.2542 35.5295 92.6849 35.3521C93.1156 35.1495 93.4322 34.8961 93.6349 34.5921C93.8376 34.2628 93.9389 33.9335 93.9389 33.6041C93.9389 33.1228 93.7869 32.7428 93.4829 32.4641C93.1789 32.1855 92.7229 31.9575 92.1149 31.7801C91.5322 31.5775 90.8356 31.3621 90.0249 31.1341C89.1889 30.9061 88.3402 30.6655 87.4789 30.4121C86.6429 30.1588 85.8702 29.8421 85.1609 29.4621C84.4516 29.0568 83.8816 28.5501 83.4509 27.9421C83.0202 27.3088 82.8049 26.5235 82.8049 25.5861C82.8049 24.4968 83.1089 23.5088 83.7169 22.6221C84.3502 21.7355 85.2369 21.0261 86.3769 20.4941C87.5169 19.9621 88.8976 19.6961 90.5189 19.6961C92.7989 19.6961 94.6102 20.2155 95.9529 21.2541C96.5745 21.7261 97.0784 22.2791 97.4646 22.9131C98.238 24.1828 97.0338 25.5481 95.5471 25.5481H95.324C94.2756 25.5481 93.4243 24.656 92.5329 24.1041C92.0262 23.7495 91.3549 23.5721 90.5189 23.5721C89.6322 23.5721 88.9482 23.7368 88.4669 24.0661C88.0109 24.3955 87.7829 24.8008 87.7829 25.2821C87.7829 25.6368 87.9349 25.9408 88.2389 26.1941C88.5682 26.4475 89.0242 26.6628 89.6069 26.8401C90.1896 27.0175 90.8989 27.2201 91.7349 27.4481C93.0776 27.8028 94.2936 28.1828 95.3829 28.5881C96.4976 28.9935 97.3842 29.5508 98.0429 30.2601C98.7269 30.9441 99.0689 31.9321 99.0689 33.2241C99.0943 34.4148 98.7776 35.4788 98.1189 36.4161C97.4602 37.3535 96.5356 38.1008 95.3449 38.6581C94.1542 39.1901 92.7229 39.4561 91.0509 39.4561Z" fill="#170F49"/>
<path d="M109.494 39.4561C107.822 39.4561 106.34 39.1775 105.048 38.6201C103.782 38.0628 102.756 37.3028 101.97 36.3401C101.832 36.1605 101.704 35.9766 101.587 35.7886C100.745 34.438 102.023 32.9961 103.615 32.9961H104.331C105.172 32.9961 105.874 33.6156 106.378 34.2881C106.682 34.6935 107.088 35.0228 107.594 35.2761C108.126 35.5041 108.734 35.6181 109.418 35.6181C110.128 35.6181 110.698 35.5295 111.128 35.3521C111.559 35.1495 111.876 34.8961 112.078 34.5921C112.281 34.2628 112.382 33.9335 112.382 33.6041C112.382 33.1228 112.23 32.7428 111.926 32.4641C111.622 32.1855 111.166 31.9575 110.558 31.7801C109.976 31.5775 109.279 31.3621 108.468 31.1341C107.632 30.9061 106.784 30.6655 105.922 30.4121C105.086 30.1588 104.314 29.8421 103.604 29.4621C102.895 29.0568 102.325 28.5501 101.894 27.9421C101.464 27.3088 101.248 26.5235 101.248 25.5861C101.248 24.4968 101.552 23.5088 102.16 22.6221C102.794 21.7355 103.68 21.0261 104.82 20.4941C105.96 19.9621 107.341 19.6961 108.962 19.6961C111.242 19.6961 113.054 20.2155 114.396 21.2541C115.018 21.7261 115.522 22.2791 115.908 22.9131C116.681 24.1828 115.477 25.5481 113.99 25.5481H113.767C112.719 25.5481 111.868 24.656 110.976 24.1041C110.47 23.7495 109.798 23.5721 108.962 23.5721C108.076 23.5721 107.392 23.7368 106.91 24.0661C106.454 24.3955 106.226 24.8008 106.226 25.2821C106.226 25.6368 106.378 25.9408 106.682 26.1941C107.012 26.4475 107.468 26.6628 108.05 26.8401C108.633 27.0175 109.342 27.2201 110.178 27.4481C111.521 27.8028 112.737 28.1828 113.826 28.5881C114.941 28.9935 115.828 29.5508 116.486 30.2601C117.17 30.9441 117.512 31.9321 117.512 33.2241C117.538 34.4148 117.221 35.4788 116.562 36.4161C115.904 37.3535 114.979 38.1008 113.788 38.6581C112.598 39.1901 111.166 39.4561 109.494 39.4561Z" fill="#170F49"/>
<path d="M122.751 39.0001C121.334 39.0001 120.186 37.8517 120.186 36.4351V14.8511C120.186 13.4345 121.334 12.2861 122.751 12.2861V12.2861C124.167 12.2861 125.316 13.4345 125.316 14.8511V36.4351C125.316 37.8517 124.167 39.0001 122.751 39.0001V39.0001Z" fill="#170F49"/>
<mask id="mask0_1245_35570" style="mask-type:alpha" maskUnits="userSpaceOnUse" x="-1" y="0" width="50" height="54">
<path d="M19.4473 1.91118C22.2643 0.284816 25.7349 0.284813 28.5519 1.91118L43.4509 10.5131C46.2678 12.1395 48.0031 15.1451 48.0031 18.3979V35.6017C48.0031 38.8545 46.2678 41.8601 43.4509 43.4865L28.5519 52.0884C25.7349 53.7148 22.2643 53.7148 19.4473 52.0884L4.54836 43.4865C1.73141 41.8601 -0.00390625 38.8545 -0.00390625 35.6017V18.3979C-0.00390625 15.1451 1.73141 12.1395 4.54836 10.5131L19.4473 1.91118Z" fill="#C4C4C4"/>
</mask>
<g mask="url(#mask0_1245_35570)">
<rect width="30.3817" height="30.3817" transform="matrix(0.866025 0.5 -0.866025 0.5 24 -1.16895)" fill="#FA4F00"/>
<rect width="27.9554" height="27.9554" transform="matrix(0.866025 0.5 -2.20305e-08 1 -0.210938 14.2417)" fill="#E9715F" fill-opacity="0.6"/>
<path d="M24 29.2231C24 28.6709 24.3877 27.9993 24.866 27.7231L48.21 14.2455L48.21 42.2008L24 56.1785L24 29.2231Z" fill="#16143E"/>
</g>
</svg>